<?xml version="1.0" standalone="no"?>
<!DOCTYPE svg PUBLIC "-//W3C//DTD SVG 20010904//EN"
 "http://www.w3.org/TR/2001/REC-SVG-20010904/DTD/svg10.dtd">
<svg version="1.0" xmlns="http://www.w3.org/2000/svg"
 width="700.000000pt" height="700.000000pt" viewBox="0 0 700.000000 700.000000"
 preserveAspectRatio="xMidYMid meet">
<metadata>
Created by potrace 1.14, written by Peter Selinger 2001-2017
</metadata>
<g transform="translate(0.000000,700.000000) scale(0.100000,-0.100000)"
fill="#000000" stroke="none">
<path d="M830 6113 c-58 -24 -64 -47 -64 -244 -1 -152 -3 -179 -16 -180 -8 0
-85 -1 -172 -1 -171 0 -211 -9 -235 -58 -16 -32 -19 -4213 -3 -4254 5 -14 24
-35 41 -45 30 -19 66 -19 1118 -20 597 0 1120 0 1161 0 l76 -1 -1 -117 c-2
-146 12 -200 65 -253 66 -66 62 -66 713 -65 416 1 590 5 610 13 51 21 96 63
119 110 19 41 22 64 23 174 1 70 4 130 7 133 3 4 524 6 1156 7 1051 0 1153 1
1184 16 18 10 38 28 45 42 10 20 13 468 13 2133 0 1941 -1 2110 -16 2133 -31
46 -59 53 -215 52 -79 0 -158 1 -174 1 l-30 1 -1 179 c-1 197 -7 221 -64 244
-51 22 -1914 14 -1950 -8 -3 -2 -26 -6 -50 -10 -178 -25 -443 -128 -608 -234
l-60 -39 -33 21 c-19 12 -43 26 -55 33 -11 6 -50 27 -85 46 -128 71 -328 142
-468 168 -31 5 -67 12 -81 15 -79 15 -228 18 -1034 19 -662 1 -896 -2 -916
-11z m1865 -216 c234 -33 423 -98 618 -215 l77 -47 0 -1948 c0 -1072 -3 -1947
-8 -1945 -4 2 -41 19 -82 39 -234 114 -426 166 -680 184 -19 2 -395 3 -835 4
l-800 1 1 1968 c1 1082 2 1967 3 1967 16 4 1678 -4 1706 -8z m3320 -1959 l0
-1968 -795 -1 c-437 0 -815 -2 -840 -4 -48 -3 -152 -15 -185 -21 -11 -2 -47
-9 -80 -15 -97 -18 -288 -84 -396 -139 -55 -27 -103 -50 -105 -50 -2 0 -4 876
-4 1948 l1 1947 42 26 c135 85 289 153 437 193 110 29 138 34 240 42 41 4 76
7 77 8 1 1 363 1 805 1 l803 0 0 -1967z m-5250 -280 c0 -1977 -4 -1847 55
-1890 24 -17 73 -18 925 -19 704 0 917 -3 980 -14 44 -7 96 -16 115 -19 143
-25 379 -127 533 -230 47 -31 98 -58 115 -60 31 -4 112 28 112 45 0 5 4 9 9 9
5 0 36 17 68 39 138 91 369 180 539 207 20 3 46 8 58 12 11 3 336 7 721 9
1181 5 1166 5 1197 28 15 11 30 34 34 50 4 17 8 842 8 1835 l1 1805 104 3 c58
1 107 -1 110 -7 5 -7 6 -3853 2 -3918 -1 -10 -230 -13 -1108 -13 -701 0 -1121
-4 -1144 -10 -50 -14 -114 -72 -134 -122 -13 -33 -17 -74 -18 -170 0 -84 -4
-129 -11 -129 -6 -1 -252 -3 -547 -3 l-535 -2 -1 131 c-1 179 -30 242 -131
286 -42 18 -88 19 -1158 19 l-1114 0 -1 33 c-1 42 -1 3878 0 3895 1 9 30 12
109 12 l108 0 -1 -1812z"/>
<path d="M2143 4580 c-49 -21 -65 -58 -67 -143 l-1 -62 -220 -1 c-121 0 -233
-3 -250 -8 -39 -9 -66 -47 -71 -97 -3 -34 1 -45 30 -76 l33 -37 387 0 c383 -1
386 -1 380 -21 -23 -73 -148 -295 -166 -295 -4 0 -35 33 -68 73 -92 108 -111
127 -123 128 -7 0 -21 2 -31 4 -55 10 -116 -49 -116 -113 0 -33 56 -115 134
-198 25 -27 46 -52 46 -56 0 -20 -161 -118 -271 -163 -107 -44 -124 -61 -123
-127 0 -42 5 -55 27 -74 46 -39 83 -40 178 -2 107 43 200 95 291 163 l71 54
41 -33 c101 -82 307 -205 357 -213 61 -9 126 49 121 111 -3 50 -24 73 -120
128 -121 71 -242 155 -242 169 0 6 13 28 29 48 52 65 129 210 167 315 l38 102
83 0 c67 0 88 4 110 20 58 44 59 134 0 178 -25 19 -42 20 -255 21 -125 0 -232
3 -237 7 -6 4 -10 33 -9 65 2 83 -22 125 -84 142 -21 7 -40 4 -69 -9z"/>
<path d="M4870 4573 c-32 -17 -56 -60 -313 -573 -152 -305 -281 -569 -286
-586 -17 -60 30 -123 97 -131 69 -8 78 6 323 496 123 248 227 451 230 451 5 0
199 -384 199 -395 0 -3 -48 -5 -106 -5 -126 0 -164 -14 -189 -67 -24 -49 -7
-106 38 -133 28 -18 51 -20 203 -20 l171 0 67 -136 c74 -151 97 -180 150 -189
69 -13 140 62 121 127 -15 50 -558 1125 -579 1146 -30 31 -82 37 -126 15z"/>
</g>
</svg>
