<?xml version="1.0" standalone="no"?>
<!DOCTYPE svg PUBLIC "-//W3C//DTD SVG 20010904//EN"
 "http://www.w3.org/TR/2001/REC-SVG-20010904/DTD/svg10.dtd">
<svg version="1.0" xmlns="http://www.w3.org/2000/svg"
 width="700.000000pt" height="700.000000pt" viewBox="0 0 700.000000 700.000000"
 preserveAspectRatio="xMidYMid meet">
<metadata>
Created by potrace 1.14, written by Peter Selinger 2001-2017
</metadata>
<g transform="translate(0.000000,700.000000) scale(0.100000,-0.100000)"
fill="#000000" stroke="none">
<path d="M2045 6836 c-128 -32 -246 -129 -306 -251 l-34 -70 -3 -837 -2 -838
-488 0 c-541 0 -569 -3 -695 -64 -154 -74 -269 -205 -324 -368 l-28 -83 0
-845 c0 -946 -3 -897 73 -1045 51 -100 173 -220 273 -268 135 -67 139 -67 681
-67 l487 0 3 -537 3 -538 28 -82 c62 -183 189 -301 364 -338 36 -8 69 -17 73
-22 4 -4 15 -28 24 -52 26 -68 81 -144 150 -208 76 -72 129 -104 232 -140 l79
-28 822 -3 c924 -3 903 -4 1052 69 121 59 212 153 272 276 l44 91 856 4 855 3
76 38 c121 59 209 173 237 307 9 41 11 579 9 2175 l-3 2120 -23 60 c-36 97
-111 210 -206 313 -49 54 -317 327 -595 608 l-506 512 -95 46 c-165 81 -46 76
-1785 75 -1199 -1 -1561 -4 -1600 -13z m3025 -738 c0 -350 4 -639 10 -673 5
-33 26 -92 45 -132 39 -80 89 -127 171 -165 l49 -23 693 -3 692 -3 0 -2028 c0
-1330 -3 -2047 -10 -2082 -14 -72 -43 -130 -91 -177 -82 -83 -11 -77 -946 -80
l-833 -2 0 808 c0 897 2 862 -68 1002 -26 53 -59 97 -112 151 -80 81 -146 123
-250 161 l-65 23 -730 5 -730 5 -5 740 -5 740 -26 66 c-40 102 -76 158 -153
234 -50 49 -94 82 -147 108 -119 58 -177 67 -472 67 l-257 0 2 813 3 812 33
67 c38 78 92 129 166 157 50 19 88 20 1544 20 l1492 1 0 -612z m280 565 c25
-11 68 -38 96 -59 59 -46 1052 -1049 1130 -1143 50 -60 124 -185 124 -210 0
-8 -184 -11 -657 -11 -619 0 -660 2 -698 19 -49 23 -88 63 -112 116 -17 37
-18 89 -21 687 l-3 646 48 -12 c27 -7 68 -22 93 -33z m-2944 -1977 c171 -45
302 -186 340 -365 21 -98 20 -1595 -1 -1694 -33 -155 -125 -276 -263 -344
l-76 -38 -845 -3 c-819 -2 -848 -2 -911 17 -149 46 -259 151 -321 306 l-24 60
-3 817 c-3 891 -3 887 54 1000 56 110 179 208 305 242 78 21 1667 23 1745 2z
m1997 -1974 c135 -55 245 -175 289 -315 l23 -72 0 -810 c0 -758 -1 -814 -18
-870 -38 -123 -139 -245 -248 -301 -107 -54 -110 -54 -964 -54 -862 0 -843 -1
-963 58 -117 57 -223 197 -251 330 -7 36 -11 278 -11 737 l0 685 58 0 c245 0
491 205 557 465 8 32 15 75 15 95 0 19 3 45 6 58 l6 23 722 -3 721 -3 58 -23z
m-2283 -1292 c0 -775 11 -702 -95 -652 -97 46 -169 143 -194 260 -7 35 -11
223 -11 562 l0 510 150 0 150 0 0 -680z"/>
<path d="M3217 4382 c-10 -10 -17 -32 -17 -49 0 -54 17 -60 210 -66 97 -4 197
-13 225 -20 166 -46 270 -155 315 -333 16 -62 20 -111 20 -252 l0 -175 -75 72
c-66 65 -78 72 -103 67 -35 -9 -52 -32 -52 -71 0 -27 20 -50 138 -168 100 -99
145 -137 162 -137 18 0 62 38 163 139 128 128 138 141 135 171 -4 42 -45 76
-79 65 -13 -4 -51 -34 -85 -67 l-62 -59 -5 193 c-3 130 -10 214 -21 258 -43
170 -155 314 -296 384 -108 52 -185 66 -386 66 -153 0 -173 -2 -187 -18z"/>
<path d="M1485 4365 c-24 -23 -25 -28 -25 -175 l0 -150 -329 0 c-317 0 -329
-1 -355 -21 -32 -25 -35 -70 -6 -99 20 -20 33 -20 561 -20 l541 0 -7 -52 c-13
-102 -54 -256 -93 -346 -43 -101 -151 -268 -205 -320 l-35 -34 -61 73 c-71 87
-139 198 -177 292 -16 38 -36 73 -47 78 -32 18 -80 7 -96 -23 -19 -33 -11 -58
56 -193 53 -105 85 -154 164 -251 l58 -71 -22 -21 c-75 -69 -291 -182 -452
-236 -115 -39 -146 -66 -129 -113 5 -15 21 -34 35 -42 24 -13 34 -12 125 18
136 44 362 158 464 234 l85 63 85 -63 c102 -76 328 -190 464 -234 91 -30 101
-31 125 -18 14 8 30 27 35 42 17 46 -15 74 -124 112 -163 55 -304 127 -427
217 l-53 39 68 83 c166 206 267 447 297 709 l6 57 118 0 c124 0 137 4 154 53
9 25 -18 73 -45 81 -13 3 -161 6 -330 6 l-308 0 0 150 c0 147 -1 152 -25 175
-31 32 -59 32 -90 0z"/>
<path d="M3439 2430 c-21 -12 -749 -1638 -749 -1673 0 -51 63 -84 103 -55 9 7
64 117 120 243 l104 230 66 0 c37 0 250 -2 475 -3 l407 -2 105 -226 c100 -216
124 -254 161 -254 28 0 69 39 69 66 0 13 -47 125 -104 247 -493 1054 -660
1404 -678 1420 -22 19 -54 22 -79 7z m250 -674 c111 -236 201 -433 201 -438 0
-4 -183 -8 -406 -8 -236 0 -404 4 -402 9 31 84 395 878 400 873 4 -4 97 -200
207 -436z"/>
<path d="M639 1564 c-145 -146 -160 -173 -120 -213 37 -37 67 -27 141 45 l68
65 5 -198 c5 -218 14 -269 71 -389 40 -85 130 -185 211 -233 31 -19 93 -45
138 -59 72 -21 104 -24 263 -25 166 -2 184 0 203 17 27 24 27 70 1 96 -18 18
-33 20 -162 20 -182 0 -256 12 -345 55 -117 58 -193 160 -228 307 -10 43 -15
118 -15 237 l0 174 69 -66 c75 -73 105 -83 141 -47 42 42 29 65 -116 213 -111
112 -140 137 -164 137 -23 0 -52 -25 -161 -136z"/>
</g>
</svg>
