<?xml version="1.0" standalone="no"?>
<!DOCTYPE svg PUBLIC "-//W3C//DTD SVG 20010904//EN"
 "http://www.w3.org/TR/2001/REC-SVG-20010904/DTD/svg10.dtd">
<svg version="1.0" xmlns="http://www.w3.org/2000/svg"
 width="1024.000000pt" height="1024.000000pt" viewBox="0 0 1024.000000 1024.000000"
 preserveAspectRatio="xMidYMid meet">
<metadata>
Created by potrace 1.14, written by Peter Selinger 2001-2017
</metadata>
<g transform="translate(0.000000,1024.000000) scale(0.100000,-0.100000)"
fill="#000000" stroke="none">
<path d="M5030 10083 c0 -4 -44 -8 -98 -9 -91 -1 -249 -10 -317 -19 -16 -2
-51 -6 -76 -9 -74 -8 -142 -18 -164 -23 -11 -2 -33 -6 -50 -7 -16 -2 -59 -9
-95 -16 -36 -6 -76 -14 -90 -16 -14 -3 -41 -9 -60 -14 -19 -5 -46 -11 -60 -13
-92 -17 -529 -143 -561 -163 -5 -3 -19 -7 -31 -9 -12 -3 -24 -8 -27 -12 -3 -5
-10 -8 -16 -8 -23 -1 -95 -29 -95 -37 0 -4 -3 -7 -7 -6 -9 3 -48 -12 -131 -49
-29 -12 -55 -23 -57 -23 -5 0 -294 -143 -340 -168 -16 -10 -33 -21 -37 -27 -5
-7 -8 -7 -8 0 0 7 -3 7 -8 0 -4 -6 -27 -20 -52 -33 -47 -24 -227 -134 -246
-150 -6 -5 -37 -27 -70 -48 -32 -21 -71 -48 -85 -59 -15 -11 -39 -29 -55 -40
-37 -27 -166 -126 -181 -139 -6 -6 -24 -21 -40 -33 -31 -24 -50 -40 -138 -116
-79 -68 -379 -369 -429 -429 -21 -26 -52 -62 -68 -80 -17 -18 -46 -53 -67 -78
-20 -25 -39 -46 -43 -48 -5 -2 -8 -8 -8 -13 0 -5 -8 -17 -17 -27 -10 -10 -25
-29 -33 -42 -8 -13 -23 -32 -32 -42 -10 -10 -18 -21 -18 -25 0 -4 -8 -16 -18
-27 -48 -53 -262 -384 -262 -405 0 -6 -4 -11 -9 -11 -5 0 -11 -8 -14 -17 -3
-10 -20 -43 -38 -73 -56 -96 -165 -321 -222 -455 -61 -145 -69 -166 -73 -180
-1 -5 -10 -28 -19 -49 -9 -22 -18 -47 -20 -55 -2 -9 -15 -46 -29 -84 -14 -37
-26 -71 -27 -75 -2 -9 -4 -17 -19 -63 -6 -20 -12 -45 -15 -55 -2 -10 -10 -40
-18 -66 -8 -27 -13 -48 -10 -48 3 0 0 -7 -7 -15 -7 -8 -10 -15 -7 -15 3 0 1
-15 -4 -32 -5 -18 -12 -46 -15 -62 -2 -16 -8 -34 -11 -40 -4 -6 -8 -22 -9 -36
-1 -14 -9 -58 -18 -98 -9 -40 -18 -89 -21 -110 -3 -20 -7 -48 -9 -62 -11 -57
-26 -159 -31 -215 -4 -33 -8 -71 -10 -85 -26 -155 -26 -807 0 -990 2 -19 6
-57 9 -85 2 -27 7 -66 10 -85 4 -19 8 -51 11 -70 2 -19 7 -48 10 -65 3 -16 7
-46 9 -65 3 -19 5 -35 6 -35 1 0 3 -9 5 -20 5 -29 26 -137 29 -155 2 -8 6 -22
9 -30 9 -26 38 -154 38 -172 0 -10 4 -18 9 -18 4 0 7 -8 6 -17 -2 -10 0 -25 5
-33 4 -8 17 -49 29 -90 21 -75 32 -108 46 -145 4 -11 8 -24 10 -30 15 -61 121
-327 170 -429 8 -16 14 -35 14 -43 0 -7 4 -13 8 -13 5 0 15 -18 22 -40 7 -22
18 -40 23 -40 6 0 8 -3 5 -6 -6 -5 69 -155 116 -234 12 -19 28 -48 36 -65 8
-16 17 -32 20 -35 3 -3 29 -45 59 -95 29 -49 62 -99 72 -110 10 -11 18 -23 18
-28 0 -8 24 -43 58 -87 13 -15 23 -32 23 -38 0 -6 3 -12 8 -14 12 -5 72 -86
72 -97 0 -5 3 -11 8 -13 4 -1 23 -23 42 -48 19 -25 40 -51 48 -58 7 -8 25 -30
40 -50 15 -20 34 -44 42 -52 8 -9 49 -55 90 -103 112 -128 327 -338 496 -484
76 -65 91 -77 120 -98 15 -11 33 -26 40 -33 7 -6 17 -12 22 -12 6 0 12 -4 14
-8 2 -5 46 -40 98 -79 80 -58 155 -108 380 -252 14 -8 28 -14 33 -13 4 1 7 -2
7 -7 0 -5 8 -12 19 -16 10 -3 67 -32 126 -65 59 -33 113 -60 120 -60 7 0 15
-4 17 -8 3 -9 151 -78 268 -127 36 -15 77 -34 93 -42 15 -8 27 -11 27 -8 0 3
10 0 23 -7 12 -7 24 -13 27 -14 13 -3 47 -16 62 -25 10 -5 26 -9 36 -9 10 0
22 -3 26 -8 4 -4 11 -7 14 -8 4 0 14 -4 22 -7 77 -33 474 -140 642 -172 46 -9
92 -18 104 -21 11 -2 36 -6 55 -8 19 -3 34 -5 34 -6 0 -1 18 -3 40 -6 22 -2
54 -6 70 -9 40 -8 142 -18 183 -19 17 0 32 -3 32 -6 0 -3 34 -5 75 -5 41 0 75
-2 75 -5 0 -3 44 -5 98 -5 53 1 103 -3 110 -8 7 -6 12 -6 12 0 0 8 37 10 48 3
7 -5 71 -3 85 3 9 3 19 2 22 -4 4 -5 11 -6 17 -3 6 4 67 9 137 11 154 5 173 7
189 16 7 5 12 3 12 -3 0 -6 4 -9 9 -6 5 3 30 8 57 11 47 5 132 14 184 20 14 2
25 4 25 5 0 1 14 3 30 5 17 1 32 4 35 5 3 1 8 2 13 1 4 -1 27 3 52 9 25 6 60
12 78 15 17 2 66 11 107 20 41 9 82 18 90 20 64 13 272 70 349 94 52 16 98 28
102 25 4 -2 9 0 11 4 1 5 44 23 93 40 50 16 104 36 120 43 17 7 32 13 35 14
36 12 81 31 141 59 31 14 59 26 62 26 7 0 291 140 342 169 16 9 74 42 128 74
54 31 101 57 103 57 3 0 10 5 17 11 7 5 57 39 112 75 54 36 107 72 117 81 10
9 18 12 18 7 0 -5 4 -4 8 1 9 13 140 115 147 115 4 0 33 23 69 55 6 6 34 28
61 49 28 22 60 49 72 60 11 12 40 37 63 56 65 53 379 367 440 439 30 36 65 76
77 90 67 79 131 161 221 286 56 77 106 145 112 152 5 7 10 14 10 17 0 2 17 31
39 63 64 98 180 301 246 433 80 162 154 320 161 345 1 6 28 75 58 155 31 80
58 152 60 160 2 8 6 24 10 35 5 11 12 31 17 45 5 14 12 37 14 51 3 13 13 51
24 84 11 32 17 63 15 67 -3 4 -1 8 4 8 5 0 9 6 10 13 0 6 3 23 6 37 3 14 8 34
10 45 2 11 12 49 21 84 9 35 18 77 20 92 2 16 6 36 9 46 3 10 7 34 10 53 3 19
8 46 11 60 2 13 7 40 10 60 3 20 7 45 9 56 2 12 7 45 10 75 4 30 9 70 11 89 6
45 13 112 22 225 10 118 10 603 0 725 -10 114 -12 135 -32 302 -14 114 -78
453 -85 453 -1 0 -3 11 -5 25 -2 14 -8 43 -14 65 -7 22 -13 45 -15 50 -1 6 -8
36 -16 68 -7 31 -17 57 -22 57 -5 0 -7 4 -4 9 11 17 -133 422 -206 581 -32 70
-51 112 -52 120 -3 11 -136 269 -170 328 -20 35 -36 68 -36 73 0 5 -4 9 -8 9
-4 0 -19 22 -33 50 -13 27 -27 50 -30 50 -4 0 -12 14 -19 30 -7 17 -15 30 -19
30 -3 0 -12 13 -19 28 -6 16 -20 37 -30 48 -10 10 -21 26 -24 34 -9 23 -224
312 -268 359 -8 9 -33 39 -55 66 -121 150 -416 445 -596 595 -81 68 -277 220
-284 220 -3 0 -11 5 -18 10 -48 40 -66 54 -99 72 -21 12 -38 25 -38 30 0 4 -4
8 -10 8 -9 0 -72 39 -97 60 -7 5 -15 10 -18 10 -4 0 -25 12 -48 28 -56 36 -73
46 -132 78 -27 15 -53 32 -57 38 -4 6 -8 8 -8 4 0 -4 -21 5 -47 20 -27 16 -82
44 -123 64 -124 59 -234 109 -255 118 -11 4 -36 15 -55 23 -46 20 -92 39 -105
43 -5 2 -41 15 -80 29 -217 79 -445 146 -645 189 -14 3 -47 11 -75 17 -27 5
-59 12 -70 13 -11 2 -47 8 -80 15 -33 6 -80 13 -105 16 -25 3 -58 8 -73 11
-16 3 -52 7 -80 9 -29 2 -52 5 -52 6 0 1 -22 3 -50 5 -27 2 -75 6 -105 9 -30
3 -103 7 -161 9 -58 1 -110 6 -115 9 -6 3 -16 2 -24 -3 -8 -5 -22 -5 -32 1
-10 5 -18 6 -18 2 0 -10 -41 -10 -57 0 -7 4 -14 3 -18 -3 -4 -7 -12 -7 -26 0
-10 6 -19 7 -19 3z m209 -657 c77 -18 232 -88 239 -107 2 -5 9 -9 15 -9 21 0
149 -108 242 -203 109 -111 220 -257 322 -422 36 -58 128 -221 128 -227 0 -3
3 -10 8 -14 6 -7 69 -131 72 -144 1 -3 14 -32 30 -65 15 -33 29 -62 30 -65 1
-3 6 -16 12 -30 28 -67 73 -181 93 -235 12 -33 26 -69 30 -80 10 -23 71 -210
74 -228 2 -7 6 -19 9 -27 9 -21 68 -231 72 -255 2 -11 11 -47 20 -80 9 -33 22
-89 30 -125 15 -71 9 -85 -31 -70 -14 6 -26 5 -29 0 -3 -5 -15 -6 -28 -1 -12
5 -32 5 -44 0 -14 -5 -23 -5 -23 1 0 6 -9 6 -23 1 -13 -5 -30 -6 -37 -1 -7 5
-23 5 -35 0 -12 -5 -28 -4 -35 0 -8 5 -18 6 -24 3 -12 -8 -112 -7 -125 1 -5 4
-12 3 -15 -2 -5 -8 -79 -7 -103 2 -7 3 -13 2 -13 -2 0 -8 -85 -6 -106 2 -7 3
-15 2 -18 -2 -5 -8 -80 -6 -103 2 -7 3 -13 2 -13 -2 0 -8 -85 -6 -106 2 -7 3
-16 1 -19 -4 -4 -7 -13 -6 -25 0 -12 6 -21 7 -25 0 -3 -6 -15 -6 -30 0 -15 6
-27 6 -30 0 -4 -6 -13 -7 -24 -1 -9 5 -23 6 -31 1 -7 -4 -23 -5 -35 0 -12 5
-28 4 -35 0 -8 -5 -19 -5 -25 0 -6 5 -17 5 -25 0 -7 -4 -24 -4 -36 0 -14 6
-26 5 -29 0 -4 -6 -13 -7 -24 -1 -9 5 -23 6 -31 1 -7 -4 -23 -5 -34 0 -12 4
-31 4 -43 -1 -14 -5 -23 -5 -23 1 0 6 -9 6 -24 0 -13 -5 -26 -6 -29 -3 -9 8
-78 9 -83 1 -3 -5 -14 -3 -25 2 -10 6 -19 7 -19 3 0 -4 -11 -8 -25 -8 -14 0
-25 4 -25 8 0 4 -8 4 -17 0 -22 -10 -54 -10 -70 0 -6 4 -14 3 -18 -2 -3 -6
-15 -7 -28 -2 -12 5 -31 5 -42 1 -11 -4 -25 -3 -32 2 -7 5 -14 5 -18 -2 -4 -7
-12 -7 -26 0 -10 6 -19 7 -19 3 0 -4 -11 -8 -25 -8 -14 0 -25 4 -25 8 0 4 -8
4 -17 0 -22 -10 -54 -10 -70 0 -6 4 -14 3 -18 -2 -3 -6 -15 -7 -28 -2 -12 5
-32 4 -45 0 -14 -5 -30 -5 -40 0 -10 6 -23 6 -34 0 -10 -6 -19 -5 -23 1 -4 6
-15 6 -30 0 -14 -5 -25 -6 -25 -1 0 5 -16 5 -35 1 -19 -4 -35 -4 -35 1 0 5
-11 4 -25 -1 -15 -6 -25 -6 -25 0 0 5 -12 5 -30 0 -17 -5 -32 -5 -35 0 -3 5
-16 5 -30 0 -14 -5 -25 -6 -25 -1 0 5 -16 5 -35 1 -19 -4 -35 -4 -35 1 0 5
-11 4 -25 -1 -15 -6 -25 -6 -25 0 0 5 -12 5 -30 0 -17 -5 -32 -5 -35 0 -3 5
-16 5 -30 0 -14 -5 -25 -6 -25 -1 0 5 -16 5 -35 1 -19 -4 -35 -4 -35 1 0 5
-11 4 -25 -1 -15 -6 -25 -6 -25 0 0 5 -12 5 -30 0 -17 -5 -32 -5 -35 0 -3 5
-16 5 -30 0 -16 -6 -25 -6 -25 1 0 6 -6 6 -19 0 -13 -7 -23 -7 -35 2 -15 11
-11 31 39 227 30 118 57 222 59 230 2 8 9 27 14 41 6 15 8 30 5 33 -4 3 -1 6
6 6 7 0 10 4 6 10 -3 5 -1 17 4 27 9 16 44 120 55 163 35 131 277 687 307 706
5 3 7 9 4 14 -3 5 1 14 8 22 7 7 30 43 51 81 64 116 183 290 271 396 50 62
206 213 265 258 88 68 209 136 265 150 98 25 132 30 200 28 44 -2 91 -5 104
-9z m-1498 -244 c-12 -17 -21 -35 -21 -42 0 -6 -4 -8 -10 -5 -5 3 -10 1 -10
-5 0 -5 -22 -46 -50 -90 -27 -44 -50 -84 -50 -90 0 -5 -4 -10 -9 -10 -5 0 -11
-8 -15 -17 -3 -10 -19 -43 -37 -73 -47 -84 -139 -268 -139 -279 0 -6 -4 -11
-10 -11 -5 0 -10 -6 -10 -14 0 -12 -46 -119 -86 -200 -8 -16 -14 -32 -14 -36
0 -4 -8 -25 -17 -46 -9 -22 -17 -41 -18 -44 0 -3 -13 -36 -27 -75 -15 -38 -35
-95 -45 -125 -10 -30 -22 -58 -26 -61 -5 -3 -8 -9 -7 -13 3 -13 -13 -71 -22
-83 -6 -7 -7 -13 -4 -13 4 0 2 -9 -4 -21 -6 -11 -13 -29 -16 -40 -6 -26 -10
-43 -34 -124 -28 -92 -90 -336 -137 -540 -17 -69 -22 -80 -41 -80 -11 0 -24
-4 -28 -7 -4 -4 -15 -3 -25 3 -11 5 -19 6 -19 2 0 -4 -11 -8 -25 -8 -14 0 -25
4 -25 8 0 4 -8 4 -17 0 -22 -10 -54 -10 -70 0 -6 4 -14 3 -18 -2 -3 -6 -15 -7
-28 -2 -12 5 -31 5 -42 1 -11 -4 -25 -3 -32 2 -7 5 -14 5 -18 -2 -4 -7 -12 -7
-26 0 -10 6 -19 7 -19 3 0 -4 -11 -8 -25 -8 -14 0 -25 4 -25 8 0 4 -8 4 -17 0
-22 -10 -54 -10 -70 0 -6 4 -14 3 -18 -2 -3 -6 -15 -7 -28 -2 -12 5 -31 5 -42
1 -11 -4 -25 -3 -32 2 -7 5 -14 5 -18 -2 -4 -7 -12 -7 -26 0 -10 6 -19 7 -19
3 0 -4 -11 -8 -25 -8 -14 0 -25 4 -25 8 0 4 -8 4 -17 0 -22 -10 -54 -10 -70 0
-6 4 -14 3 -18 -2 -3 -6 -15 -7 -28 -2 -12 5 -32 4 -45 0 -14 -5 -30 -5 -40 0
-10 6 -23 6 -34 0 -10 -6 -19 -5 -23 1 -4 6 -15 6 -30 0 -14 -5 -25 -6 -25 -1
0 5 -16 5 -35 1 -19 -4 -35 -4 -35 1 0 5 -11 4 -25 -1 -15 -6 -25 -6 -25 0 0
5 -12 5 -30 0 -17 -5 -32 -5 -35 0 -3 5 -16 5 -30 0 -14 -5 -25 -6 -25 -1 0 5
-16 5 -35 1 -19 -4 -35 -4 -35 1 0 5 -11 4 -25 -1 -15 -6 -25 -6 -25 0 0 5
-12 5 -30 0 -17 -5 -32 -5 -35 0 -3 5 -16 5 -30 0 -17 -6 -25 -6 -25 1 0 6 -5
7 -10 4 -6 -4 -17 -4 -25 -1 -14 5 16 74 80 181 13 22 27 47 31 55 18 36 119
196 129 202 5 4 6 8 2 8 -4 0 -3 6 3 13 37 44 50 61 50 67 0 6 13 23 50 68 6
6 8 12 5 12 -4 0 0 6 7 13 7 8 24 29 38 47 31 41 150 191 165 206 5 6 39 44
75 85 115 129 336 344 440 426 19 16 45 38 58 51 12 12 27 22 32 22 6 0 10 5
10 10 0 6 7 10 15 10 8 0 15 4 15 8 0 5 25 26 57 48 31 21 61 43 67 49 11 11
172 121 204 140 63 37 98 60 104 69 4 6 8 7 8 3 0 -5 12 0 28 11 53 37 295
163 402 210 41 18 198 83 245 102 46 18 121 44 133 46 8 2 16 5 20 8 3 3 7 4
10 2 2 -3 -5 -18 -17 -34z m2954 -41 c11 -4 31 -13 45 -19 14 -6 54 -23 90
-38 73 -29 332 -156 340 -165 3 -4 34 -22 70 -41 93 -50 129 -71 152 -90 12
-10 27 -18 35 -18 7 0 13 -4 13 -10 0 -5 4 -10 10 -10 8 0 98 -57 110 -71 3
-3 34 -25 70 -50 36 -24 72 -52 81 -61 9 -10 20 -18 24 -18 10 0 155 -120 279
-230 118 -105 385 -385 410 -429 5 -9 17 -23 26 -31 26 -23 175 -222 239 -318
95 -142 185 -290 240 -397 l51 -100 -32 -6 c-18 -3 -38 -1 -44 3 -6 4 -13 5
-17 2 -8 -8 -112 -8 -125 0 -6 3 -13 2 -17 -4 -4 -6 -12 -7 -24 -1 -9 5 -23 6
-31 1 -7 -4 -23 -5 -35 0 -12 5 -28 4 -35 0 -8 -5 -19 -5 -25 0 -6 5 -17 5
-25 0 -7 -4 -24 -4 -36 0 -14 6 -26 5 -29 0 -4 -6 -13 -7 -24 -1 -9 5 -23 6
-31 1 -7 -4 -24 -4 -36 0 -14 6 -26 5 -29 0 -4 -7 -13 -6 -26 0 -10 6 -19 7
-19 3 0 -9 -84 -8 -106 1 -7 3 -15 2 -18 -2 -5 -8 -80 -6 -103 2 -7 3 -13 2
-13 -2 0 -8 -85 -6 -106 2 -7 3 -15 2 -18 -2 -5 -8 -80 -6 -103 2 -7 3 -13 2
-13 -2 0 -8 -85 -6 -106 2 -8 3 -14 2 -14 -2 0 -4 -19 -6 -42 -4 -24 1 -50 3
-58 2 -88 -2 -121 -1 -130 5 -5 3 -10 3 -10 -2 0 -8 -83 -8 -106 1 -7 3 -14 1
-16 -3 -2 -5 -12 -5 -23 -1 -16 6 -25 26 -39 86 -17 77 -74 314 -82 344 -2 8
-8 33 -14 55 -6 22 -13 47 -15 55 -2 8 -4 15 -5 15 -1 0 -3 8 -5 18 -2 10 -11
41 -20 70 -9 28 -17 59 -18 67 -2 8 -5 20 -9 25 -3 6 -9 27 -13 48 -4 20 -12
37 -18 37 -6 0 -8 3 -4 6 10 10 -148 450 -194 536 -5 10 -9 25 -9 33 0 8 -4
15 -10 15 -5 0 -10 5 -10 10 0 6 -9 30 -20 52 -11 23 -20 48 -20 55 0 7 -4 13
-10 13 -5 0 -10 9 -10 20 0 11 -4 20 -10 20 -5 0 -10 5 -10 11 0 18 -89 190
-175 336 -22 37 -42 73 -44 78 -2 6 -7 12 -11 15 -8 6 -55 80 -60 95 -2 6 -12
19 -22 29 -10 11 -18 23 -18 28 0 6 149 -42 215 -71z m-5657 -2742 c15 4 39 4
55 0 16 -5 27 -4 27 2 0 7 6 7 17 0 11 -6 24 -6 35 0 10 6 19 5 23 -1 4 -6 15
-6 30 0 14 5 25 6 25 2 0 -4 11 -7 25 -7 14 0 25 3 25 7 0 4 14 3 30 -2 19 -5
30 -5 30 1 0 6 6 6 18 0 10 -5 24 -6 31 -1 8 4 27 4 42 0 17 -5 29 -5 29 0 0
6 10 6 25 0 15 -6 26 -6 30 1 4 6 13 6 23 0 10 -6 23 -6 34 0 10 5 18 6 18 2
0 -4 11 -8 25 -8 14 0 25 3 25 7 0 4 14 3 30 -2 18 -5 30 -5 30 0 0 6 10 6 25
0 15 -6 26 -6 30 1 4 6 13 6 23 0 10 -6 23 -6 34 0 10 5 18 6 18 2 0 -4 11 -8
25 -8 14 0 25 3 25 7 0 4 14 3 30 -2 18 -5 30 -5 30 0 0 6 10 6 25 0 15 -6 26
-6 30 1 4 6 13 6 23 0 10 -6 23 -6 34 0 10 5 18 6 18 2 0 -4 11 -8 25 -8 14 0
25 3 25 7 0 4 14 3 30 -2 18 -5 30 -5 30 0 0 6 10 6 25 0 15 -6 26 -6 30 0 4
6 13 7 23 1 11 -6 24 -6 35 0 9 6 17 6 17 2 0 -4 11 -8 25 -8 14 0 25 3 25 7
0 4 14 3 30 -2 18 -5 30 -5 30 0 0 6 10 6 25 0 15 -6 26 -6 30 1 4 5 13 6 22
1 8 -5 33 -6 54 -2 21 4 39 5 39 1 0 -3 11 -6 25 -6 14 0 25 4 25 8 0 4 8 3
18 -2 10 -5 24 -6 32 -1 8 5 22 4 32 -1 13 -7 18 -6 18 2 0 8 4 8 15 -1 8 -7
15 -9 16 -4 0 5 4 0 8 -11 5 -11 6 -24 3 -30 -7 -11 -7 -10 -16 -110 -3 -38
-8 -86 -11 -105 -8 -55 -17 -158 -30 -330 -9 -116 -18 -323 -19 -417 -1 -51
-3 -93 -6 -93 -3 0 -5 -16 -5 -35 0 -19 2 -35 5 -35 7 0 5 -43 -3 -56 -3 -5
-2 -16 3 -24 5 -8 5 -21 0 -30 -5 -9 -5 -22 0 -30 4 -7 4 -24 -1 -37 -5 -12
-5 -23 -1 -23 4 0 7 -36 7 -80 0 -44 -3 -80 -8 -80 -4 0 -5 -6 0 -12 4 -7 8
-35 9 -63 1 -27 5 -115 9 -195 4 -80 8 -171 9 -202 1 -32 3 -58 6 -58 3 0 6
-17 6 -38 1 -44 11 -156 20 -227 10 -84 14 -118 17 -162 1 -23 5 -45 9 -48 4
-4 4 -13 2 -20 -4 -10 -14 -11 -35 -5 -16 5 -29 5 -29 0 0 -5 -13 -5 -30 0
-18 5 -30 5 -30 0 0 -6 -10 -6 -25 0 -15 6 -26 6 -30 -1 -4 -5 -13 -6 -22 -1
-8 5 -33 6 -54 2 -21 -4 -39 -5 -39 -1 0 3 -11 6 -25 6 -14 0 -25 -4 -25 -8 0
-4 -8 -4 -17 2 -10 5 -24 6 -33 1 -9 -5 -22 -5 -30 0 -8 5 -21 5 -31 -1 -11
-6 -20 -5 -24 1 -4 6 -15 6 -30 0 -14 -5 -25 -6 -25 -2 0 4 -11 7 -25 7 -14 0
-25 -4 -25 -8 0 -4 -8 -4 -17 2 -10 5 -24 6 -33 1 -9 -5 -22 -5 -30 0 -8 5
-21 5 -31 -1 -11 -6 -20 -5 -24 1 -4 6 -15 6 -30 0 -14 -5 -25 -6 -25 -2 0 4
-11 7 -25 7 -14 0 -25 -4 -25 -8 0 -4 -8 -3 -18 2 -10 6 -24 6 -32 1 -8 -5
-21 -5 -29 0 -9 5 -23 4 -33 -1 -10 -6 -19 -5 -23 1 -4 6 -15 6 -30 0 -14 -5
-25 -6 -25 -2 0 4 -11 7 -25 7 -14 0 -25 -4 -25 -8 0 -4 -8 -4 -17 2 -10 5
-24 6 -33 1 -9 -5 -22 -5 -30 0 -8 5 -21 5 -31 -1 -11 -6 -20 -5 -24 1 -4 6
-15 6 -30 0 -14 -5 -25 -6 -25 -2 0 4 -11 7 -25 7 -14 0 -25 -4 -25 -8 0 -4
-8 -4 -17 2 -10 5 -24 6 -33 1 -9 -5 -22 -5 -30 0 -8 5 -21 5 -31 -1 -11 -6
-20 -5 -24 1 -4 6 -15 6 -30 0 -14 -5 -25 -6 -25 -2 0 4 -11 7 -25 7 -14 0
-25 -3 -25 -7 0 -4 -13 -3 -30 2 -19 5 -30 5 -30 -1 0 -6 -6 -6 -18 0 -10 5
-24 6 -31 1 -8 -4 -27 -4 -42 0 -17 5 -29 5 -29 0 0 -6 -11 -5 -26 0 -14 6
-23 6 -20 1 3 -4 -6 -6 -19 -3 -14 2 -26 11 -26 18 -2 18 -4 25 -13 46 -4 9
-9 25 -11 35 -2 10 -4 18 -6 18 -1 0 -3 9 -5 20 -4 25 -24 105 -31 125 -8 20
-10 29 -17 70 -4 19 -9 42 -11 50 -2 8 -6 26 -9 40 -3 14 -7 35 -10 46 -2 12
-7 39 -10 60 -3 22 -8 50 -11 64 -6 35 -12 81 -24 180 -17 139 -21 198 -27
340 -3 74 -6 140 -6 145 -3 61 17 407 29 500 4 33 7 75 8 93 0 17 3 32 6 32 3
0 6 6 6 13 0 25 15 132 18 138 3 3 7 24 10 45 6 43 13 79 15 79 1 0 3 9 5 20
19 102 30 145 37 145 5 0 7 4 4 8 -3 5 2 33 10 63 8 30 17 63 19 73 15 64 37
116 42 99 3 -7 14 -8 31 -4z m2522 2 c0 7 6 7 17 0 11 -6 24 -6 35 0 10 6 19
5 23 -1 3 -5 15 -6 29 0 12 4 29 4 36 0 8 -5 22 -4 31 1 11 6 20 5 24 -1 4 -6
15 -6 30 0 14 5 25 6 25 2 0 -4 11 -7 25 -7 14 0 25 3 25 7 0 4 14 3 30 -2 19
-5 30 -5 30 1 0 6 6 6 18 0 10 -5 24 -6 31 -1 8 4 27 4 42 0 17 -5 29 -5 29 0
0 6 10 6 25 0 15 -6 26 -6 30 1 4 6 13 6 23 0 10 -6 23 -6 34 0 10 5 18 6 18
2 0 -4 11 -8 25 -8 14 0 25 3 25 7 0 4 14 3 30 -2 18 -5 30 -5 30 0 0 6 10 6
25 0 15 -6 26 -6 30 1 4 6 13 6 23 0 10 -6 23 -6 34 0 10 5 18 6 18 2 0 -4 11
-8 25 -8 14 0 25 3 25 7 0 4 14 3 30 -2 18 -5 30 -5 30 0 0 6 10 6 25 0 15 -6
26 -6 30 1 4 6 13 6 23 0 10 -6 23 -6 34 0 10 5 18 6 18 2 0 -4 11 -8 25 -8
14 0 25 3 25 7 0 4 14 3 30 -2 18 -5 30 -5 30 0 0 6 10 6 25 0 15 -6 26 -6 30
1 4 6 13 6 23 0 10 -6 23 -6 34 0 10 5 18 6 18 2 0 -4 11 -8 25 -8 14 0 25 3
25 7 0 4 14 3 30 -2 18 -5 30 -5 30 0 0 6 10 6 25 0 15 -6 26 -6 30 1 4 6 13
6 23 0 10 -6 23 -6 34 0 10 6 19 5 23 -1 4 -6 15 -6 30 0 14 5 25 6 25 2 0 -4
11 -7 25 -7 14 0 25 3 25 7 0 4 11 3 25 -2 15 -6 26 -6 30 1 4 6 13 6 23 0 10
-6 23 -6 34 0 10 5 18 6 18 2 0 -4 11 -8 25 -8 14 0 25 3 25 7 0 4 14 3 30 -2
18 -5 30 -5 30 0 0 6 10 6 25 0 15 -6 26 -6 30 1 4 6 13 6 23 0 10 -6 23 -6
34 0 10 5 18 6 18 2 0 -4 11 -8 25 -8 14 0 25 3 25 7 0 4 14 3 30 -2 18 -5 30
-5 30 0 0 6 10 6 25 0 15 -6 26 -6 30 1 4 6 13 6 23 0 10 -6 23 -6 34 0 10 5
18 6 18 2 0 -4 11 -8 25 -8 14 0 25 3 25 7 0 4 14 3 30 -2 18 -5 30 -5 30 0 0
6 10 6 25 0 15 -6 26 -6 30 0 4 6 13 7 23 1 11 -6 24 -6 35 0 9 6 17 6 17 2 0
-4 11 -8 25 -8 14 0 25 3 25 7 0 4 14 3 30 -2 17 -5 30 -5 30 0 0 6 10 6 23 1
12 -5 32 -5 45 0 13 5 22 5 22 -1 0 -6 9 -6 23 -1 12 5 31 5 42 1 11 -4 27 -4
36 1 8 4 21 4 29 -1 8 -5 21 -5 31 1 11 6 20 5 24 -1 4 -6 15 -6 30 0 14 5 25
6 25 2 0 -4 11 -7 25 -7 14 0 25 4 25 8 0 4 8 3 18 -2 10 -5 24 -6 32 -1 8 5
21 5 30 0 9 -5 22 -5 30 0 8 5 19 5 25 0 6 -5 17 -5 24 -1 31 19 55 -2 54 -46
-1 -7 2 -13 6 -13 4 0 8 -12 9 -27 1 -28 8 -95 16 -163 16 -126 39 -418 40
-522 1 -38 3 -68 6 -68 3 0 5 -61 5 -135 0 -74 4 -135 8 -135 4 0 3 -9 -3 -20
-8 -14 -8 -20 0 -20 7 0 8 -6 2 -17 -5 -10 -6 -29 -2 -43 4 -14 4 -34 0 -45
-4 -11 -4 -29 0 -40 4 -11 4 -29 0 -41 -5 -11 -4 -27 0 -34 5 -8 6 -18 3 -23
-3 -5 -7 -75 -8 -155 -3 -144 -11 -292 -20 -422 -11 -140 -16 -196 -19 -225
-2 -16 -6 -59 -10 -95 -13 -128 -24 -219 -28 -240 -6 -28 -19 -41 -31 -32 -7
5 -21 6 -32 2 -11 -4 -32 -4 -47 1 -16 4 -28 4 -28 -1 0 -5 -13 -5 -30 0 -17
5 -30 5 -30 0 0 -6 -10 -6 -22 -1 -13 5 -33 5 -45 0 -14 -5 -23 -5 -23 1 0 6
-9 6 -22 1 -13 -5 -32 -5 -43 -1 -11 4 -27 4 -36 -1 -8 -4 -21 -4 -29 1 -8 5
-21 5 -31 -1 -11 -6 -20 -5 -24 1 -4 6 -15 6 -30 0 -14 -5 -25 -6 -25 -2 0 4
-11 7 -25 7 -14 0 -25 -4 -25 -8 0 -4 -8 -4 -17 2 -10 5 -24 6 -33 1 -9 -5
-22 -5 -30 0 -8 5 -21 5 -31 -1 -11 -6 -20 -5 -24 1 -4 6 -15 6 -30 0 -14 -5
-25 -6 -25 -2 0 4 -11 7 -25 7 -14 0 -25 -4 -25 -8 0 -4 -8 -4 -17 2 -10 5
-24 6 -33 1 -9 -5 -22 -5 -30 0 -8 5 -21 5 -31 -1 -11 -6 -20 -5 -24 1 -4 6
-15 6 -30 0 -14 -5 -25 -6 -25 -2 0 4 -11 7 -25 7 -14 0 -25 -4 -25 -8 0 -4
-8 -4 -17 2 -10 5 -24 6 -33 1 -9 -5 -22 -5 -30 0 -8 5 -21 5 -31 -1 -11 -6
-20 -5 -24 1 -4 6 -15 6 -30 0 -14 -5 -25 -6 -25 -2 0 4 -11 7 -25 7 -14 0
-25 -4 -25 -8 0 -4 -8 -4 -17 2 -10 5 -24 6 -33 1 -9 -5 -22 -5 -30 0 -8 5
-21 5 -31 -1 -11 -6 -20 -5 -24 1 -4 6 -15 6 -30 0 -14 -5 -25 -6 -25 -2 0 9
-53 7 -69 -3 -6 -3 -11 -2 -11 4 0 7 -8 7 -25 1 -13 -5 -26 -6 -29 -1 -3 4
-28 5 -56 1 -27 -4 -50 -4 -50 -1 0 3 -11 6 -25 6 -14 0 -25 -4 -25 -8 0 -4
-8 -4 -17 2 -10 5 -24 6 -33 1 -9 -5 -22 -5 -30 0 -8 5 -21 5 -31 -1 -11 -6
-20 -5 -24 1 -4 6 -15 6 -30 0 -14 -5 -25 -6 -25 -2 0 4 -11 7 -25 7 -14 0
-25 -4 -25 -8 0 -4 -8 -4 -17 2 -10 5 -24 6 -33 1 -9 -5 -22 -5 -30 0 -8 5
-21 5 -31 -1 -11 -6 -20 -5 -24 1 -4 6 -15 6 -30 0 -14 -5 -25 -6 -25 -2 0 4
-11 7 -25 7 -14 0 -25 -4 -25 -8 0 -4 -8 -4 -17 2 -10 5 -24 6 -33 1 -9 -5
-22 -5 -30 0 -8 5 -21 5 -31 -1 -11 -6 -20 -5 -24 1 -4 6 -15 6 -30 0 -14 -5
-25 -6 -25 -2 0 4 -11 7 -25 7 -14 0 -25 -4 -25 -8 0 -4 -8 -4 -17 2 -10 5
-24 6 -33 1 -9 -5 -22 -5 -30 0 -8 5 -21 5 -31 -1 -11 -6 -20 -5 -24 1 -4 6
-15 6 -30 0 -14 -5 -25 -6 -25 -2 0 4 -11 7 -25 7 -14 0 -25 -4 -25 -8 0 -4
-8 -4 -17 2 -10 5 -24 6 -33 1 -9 -5 -22 -5 -30 0 -8 5 -21 5 -31 -1 -11 -6
-20 -5 -24 1 -4 6 -15 6 -30 0 -14 -5 -25 -6 -25 -2 0 4 -11 7 -25 7 -14 0
-25 -3 -25 -7 0 -4 -13 -3 -30 2 -19 5 -30 5 -30 -1 0 -6 -6 -6 -18 0 -10 5
-24 6 -31 1 -8 -4 -27 -4 -42 0 -17 5 -29 5 -29 0 0 -6 -10 -6 -22 -1 -13 5
-33 5 -45 0 -13 -5 -23 -5 -23 -1 0 4 -11 7 -25 7 -14 0 -25 -4 -25 -8 0 -4
-10 -2 -22 4 -13 7 -25 12 -28 11 -3 -1 -6 6 -7 15 0 10 -4 34 -7 53 -3 19 -8
60 -11 90 -2 30 -5 55 -6 55 0 0 -3 18 -4 40 -2 22 -6 63 -10 90 -19 151 -37
478 -39 697 -1 82 -4 148 -8 148 -4 0 -3 11 2 25 6 17 6 25 -1 25 -6 0 -7 6 0
17 5 10 5 26 0 40 -5 13 -5 23 -1 23 4 0 7 11 7 25 0 14 -4 25 -9 25 -6 0 -5
5 1 11 8 8 8 20 3 34 -5 13 -6 26 -2 29 3 4 7 59 8 124 2 114 7 213 20 397 4
50 8 110 9 135 2 25 4 45 5 45 2 0 12 121 14 167 0 21 3 38 6 38 3 0 6 12 6
28 1 15 5 50 8 77 4 28 8 60 8 73 1 12 7 21 13 19 5 -2 19 -1 30 3 11 4 32 4
48 -1 16 -5 27 -4 27 2z m3968 -6 c13 0 26 3 28 7 3 5 14 4 24 -2 13 -7 21 -7
25 0 4 6 11 7 18 3 14 -8 58 -9 80 0 9 3 17 2 17 -4 0 -6 7 -6 20 1 14 8 20 8
20 0 0 -8 6 -8 20 0 14 8 20 8 20 0 0 -8 6 -8 20 0 14 8 20 8 20 0 0 -8 6 -8
20 0 14 8 20 8 20 0 0 -8 6 -8 20 0 14 8 20 8 20 0 0 -8 6 -8 20 0 14 8 20 8
20 0 0 -8 6 -8 20 0 14 8 20 8 20 0 0 -8 6 -8 20 0 14 8 20 8 20 0 0 -8 6 -8
20 0 14 8 20 8 20 0 0 -8 6 -8 20 0 14 8 20 8 20 0 0 -8 6 -8 20 0 14 8 20 8
20 0 0 -8 6 -8 20 0 14 8 20 8 20 0 0 -8 6 -8 20 0 14 8 20 8 20 0 0 -8 6 -8
20 0 14 8 20 8 20 0 0 -8 6 -8 20 0 14 8 20 8 20 0 0 -8 6 -8 20 0 14 8 20 8
20 0 0 -8 6 -8 20 0 14 8 20 8 20 0 0 -8 6 -8 20 0 14 8 20 8 20 0 0 -8 6 -8
20 0 14 8 20 8 20 0 0 -8 6 -8 20 0 14 8 20 8 20 0 0 -8 6 -8 20 0 14 8 20 8
20 0 0 -8 6 -8 20 0 14 8 20 8 20 0 0 -8 6 -8 20 0 14 8 20 8 20 0 0 -8 6 -8
20 0 14 8 20 8 20 0 0 -8 6 -8 20 0 14 8 20 8 20 0 0 -8 6 -8 20 0 14 8 20 8
20 0 0 -8 6 -8 20 0 14 8 20 8 20 0 0 -8 6 -8 20 0 14 8 20 8 20 0 0 -8 6 -8
20 0 14 8 20 8 20 0 0 -8 6 -8 20 0 14 8 20 8 20 0 0 -6 5 -8 11 -5 13 9 79
12 79 5 0 -3 16 -5 35 -5 19 0 35 3 35 7 0 4 11 3 25 -2 16 -6 25 -6 25 0 0 6
9 6 23 1 14 -5 30 -5 40 0 11 7 17 6 17 0 0 -6 7 -8 15 -5 15 6 38 -34 49 -87
14 -63 27 -113 34 -123 4 -6 7 -18 7 -26 1 -8 8 -42 15 -75 8 -33 15 -64 16
-70 1 -5 3 -12 4 -15 1 -3 3 -14 5 -25 2 -11 13 -74 24 -140 12 -66 24 -142
26 -170 3 -27 7 -63 10 -80 26 -185 27 -770 0 -925 -2 -14 -6 -52 -10 -85 -3
-33 -7 -67 -10 -75 -2 -8 -6 -35 -9 -60 -3 -25 -9 -56 -12 -70 -3 -14 -7 -38
-9 -55 -2 -16 -4 -30 -5 -30 -1 0 -3 -7 -5 -15 -10 -47 -16 -73 -20 -97 -3
-16 -9 -37 -12 -48 -4 -11 -7 -27 -8 -35 -1 -8 -10 -42 -19 -75 -9 -33 -18
-67 -21 -76 -13 -59 -30 -99 -39 -96 -6 3 -19 0 -28 -5 -11 -5 -18 -5 -18 1 0
6 -11 6 -28 2 -15 -5 -37 -5 -49 0 -13 5 -25 4 -28 -2 -4 -6 -13 -6 -23 0 -10
6 -23 6 -34 0 -10 -5 -18 -6 -18 -2 0 10 -63 8 -79 -2 -6 -3 -11 -1 -11 5 0 8
-6 8 -20 0 -14 -8 -20 -8 -20 0 0 8 -6 8 -20 0 -14 -8 -20 -8 -20 0 0 8 -6 8
-20 0 -14 -8 -20 -8 -20 0 0 8 -6 8 -20 0 -14 -8 -20 -8 -20 0 0 8 -6 8 -20 0
-14 -8 -20 -8 -20 0 0 8 -6 8 -20 0 -14 -8 -20 -8 -20 0 0 8 -6 8 -20 0 -14
-8 -20 -8 -20 0 0 8 -6 8 -20 0 -14 -8 -20 -8 -20 0 0 8 -6 8 -20 0 -14 -8
-20 -8 -20 0 0 8 -6 8 -20 0 -14 -8 -20 -8 -20 0 0 8 -6 8 -20 0 -14 -8 -20
-8 -20 0 0 8 -6 8 -20 0 -14 -8 -20 -8 -20 0 0 8 -6 8 -20 0 -14 -8 -20 -8
-20 0 0 8 -6 8 -20 0 -14 -8 -20 -8 -20 0 0 8 -6 8 -20 0 -14 -8 -20 -8 -20 0
0 8 -6 8 -20 0 -14 -8 -20 -8 -20 0 0 8 -6 8 -20 0 -14 -8 -20 -8 -20 0 0 8
-6 8 -20 0 -14 -8 -20 -8 -20 0 0 8 -6 8 -20 0 -14 -8 -20 -8 -20 0 0 8 -6 8
-20 0 -14 -8 -20 -8 -20 0 0 8 -6 8 -20 0 -14 -8 -20 -8 -20 0 0 8 -6 8 -20 0
-14 -8 -20 -8 -20 0 0 8 -6 8 -20 0 -14 -8 -20 -8 -20 0 0 8 -6 8 -20 0 -14
-8 -20 -8 -20 0 0 8 -6 8 -20 0 -14 -8 -20 -8 -20 0 0 8 -6 8 -20 0 -14 -8
-20 -8 -20 0 0 8 -6 8 -20 0 -14 -8 -20 -8 -20 0 0 8 -6 8 -20 0 -14 -8 -20
-8 -20 0 0 8 -6 8 -20 0 -14 -8 -20 -8 -20 0 0 8 -6 8 -20 0 -14 -8 -20 -8
-20 0 0 7 -6 7 -21 -1 -14 -7 -24 -8 -31 -1 -7 7 -19 7 -34 2 -13 -5 -24 -6
-24 -2 0 4 -11 7 -25 7 -14 0 -25 -3 -25 -7 0 -4 -10 -4 -22 1 -13 5 -32 5
-43 1 -11 -4 -28 -5 -38 -2 -18 5 -18 -3 -2 162 11 119 15 158 20 195 4 38 12
138 20 255 2 30 4 55 5 55 2 0 9 161 12 262 2 57 7 103 11 103 5 0 5 6 0 13
-10 16 -10 69 0 84 4 6 4 14 -2 17 -6 4 -6 18 -1 35 4 15 5 33 1 40 -4 6 -4
34 -1 61 4 28 3 50 -1 50 -4 0 -4 14 1 30 5 17 5 30 1 30 -4 0 -6 15 -4 33 2
17 4 37 3 42 0 6 -2 51 -4 100 -2 50 -7 153 -11 230 -4 77 -8 164 -9 192 0 29
-3 53 -6 53 -3 0 -5 28 -5 63 0 34 -2 66 -4 72 -5 11 -8 31 -15 129 -3 39 -8
87 -12 106 -3 19 -7 53 -8 75 -2 22 -5 47 -7 55 -3 10 3 15 19 14 12 0 22 3
22 8 0 5 5 6 12 2 7 -4 23 -8 36 -9z m-6168 -3195 c0 5 12 5 30 0 17 -5 30 -5
30 0 0 5 13 5 30 0 17 -5 30 -6 30 -2 0 4 18 7 40 7 22 0 40 -3 40 -7 0 -4 11
-3 25 2 15 6 25 6 25 0 0 -5 12 -5 30 0 17 5 32 5 35 0 3 -5 16 -5 30 0 17 6
25 6 25 -1 0 -6 5 -7 11 -4 13 9 175 9 188 1 5 -4 12 -2 16 4 4 7 12 7 26 0
10 -6 19 -7 19 -3 0 4 11 8 25 8 14 0 25 -4 25 -8 0 -4 8 -4 18 0 21 10 53 10
69 0 6 -4 14 -3 18 2 3 6 15 7 28 2 12 -5 31 -5 42 -1 11 4 25 3 32 -2 7 -5
14 -5 18 2 4 7 12 7 26 0 10 -6 19 -7 19 -3 0 4 11 8 25 8 14 0 25 -4 25 -8 0
-4 8 -4 18 0 21 10 53 10 69 0 6 -4 14 -3 18 2 3 6 15 7 28 2 12 -5 31 -5 42
-1 11 4 25 3 32 -2 7 -5 14 -5 18 2 4 7 12 7 26 0 10 -6 19 -7 19 -3 0 4 11 8
25 8 14 0 25 -4 25 -8 0 -4 8 -4 18 0 21 10 53 10 69 0 6 -4 14 -3 18 2 3 6
15 7 28 2 12 -5 31 -5 42 -1 38 13 51 1 64 -63 7 -34 26 -116 42 -183 16 -66
31 -129 34 -140 2 -10 8 -34 14 -53 6 -18 10 -36 9 -40 -1 -3 2 -13 5 -21 8
-21 37 -122 42 -151 3 -13 9 -33 14 -44 5 -11 23 -67 40 -125 18 -58 36 -114
41 -125 5 -11 16 -42 25 -70 27 -84 60 -167 134 -340 28 -66 51 -126 51 -133
0 -6 3 -12 8 -12 4 0 18 -27 32 -60 14 -33 28 -60 33 -60 4 0 6 -3 5 -7 -4
-14 78 -167 171 -321 31 -51 60 -101 66 -112 5 -11 13 -20 17 -20 5 0 8 -7 8
-15 0 -8 4 -15 8 -15 11 0 43 -56 35 -63 -3 -4 -18 0 -34 8 -15 8 -32 15 -37
15 -5 0 -27 8 -48 17 -22 9 -41 17 -44 18 -14 3 -86 28 -95 34 -5 3 -16 6 -24
8 -8 1 -18 8 -22 15 -5 7 -9 9 -9 5 0 -5 -12 -2 -27 6 -16 7 -48 23 -73 35
-109 50 -260 127 -322 163 -36 21 -71 39 -77 39 -6 0 -11 4 -11 8 0 5 -18 17
-40 27 -22 10 -40 22 -40 27 0 4 -5 8 -10 8 -11 0 -87 47 -108 67 -7 7 -17 13
-22 13 -5 0 -15 6 -22 13 -7 7 -35 28 -63 47 -27 18 -52 36 -55 40 -3 3 -21
17 -40 30 -39 28 -41 29 -130 101 -183 148 -435 395 -570 559 -25 30 -47 57
-51 60 -17 15 -169 220 -169 228 0 6 -4 12 -8 14 -11 4 -146 205 -163 241 -7
15 -16 27 -21 27 -4 0 -8 4 -8 10 0 5 -14 32 -30 60 -44 75 -101 181 -111 209
-8 21 -7 23 11 18 11 -3 22 -1 25 4 3 4 17 4 30 -1 15 -6 25 -6 25 0z m2330
-2 c0 -4 14 -3 30 2 17 5 30 5 30 0 0 -5 13 -5 30 0 17 5 30 5 30 0 0 -4 16
-4 35 0 19 4 35 4 35 -1 0 -5 11 -4 25 1 15 6 25 6 25 0 0 -5 12 -5 30 0 17 5
32 5 35 0 3 -5 16 -5 30 0 14 5 25 6 25 1 0 -5 16 -5 35 -1 19 4 35 4 35 -1 0
-5 11 -4 25 1 15 6 25 6 25 0 0 -5 12 -5 30 0 17 5 32 5 35 0 3 -5 16 -5 30 0
17 6 25 6 25 -1 0 -6 5 -7 11 -4 13 9 175 9 188 1 5 -4 12 -2 16 4 4 7 12 7
26 0 10 -6 19 -7 19 -3 0 4 11 8 25 8 14 0 25 -4 25 -8 0 -4 8 -4 18 0 21 10
53 10 69 0 6 -4 14 -3 18 2 3 6 15 7 28 2 12 -5 31 -5 42 -1 11 4 25 3 32 -2
7 -5 14 -5 18 2 4 7 12 7 26 0 10 -6 19 -7 19 -3 0 4 11 8 25 8 14 0 25 -4 25
-8 0 -4 8 -4 18 0 21 10 53 10 69 0 6 -4 14 -3 18 2 3 6 15 7 28 2 12 -5 32
-5 45 0 14 5 31 5 41 -1 10 -5 21 -6 25 -3 8 8 112 7 125 -1 5 -4 12 -3 15 2
5 8 79 7 103 -2 7 -3 13 -2 13 2 0 8 85 6 106 -2 7 -3 15 -2 18 2 5 8 80 6
103 -2 7 -3 13 -2 13 2 0 8 85 6 106 -2 7 -3 16 -1 19 4 4 7 13 6 25 0 12 -6
21 -7 25 0 3 6 15 6 30 0 15 -6 27 -6 30 0 4 6 13 7 24 1 9 -5 23 -6 31 -1 7
4 23 5 35 0 12 -5 28 -4 35 0 8 5 19 5 25 0 6 -5 17 -5 25 0 7 4 24 4 36 0 14
-6 26 -5 29 0 4 6 13 7 24 1 9 -5 23 -6 31 -1 7 4 23 5 34 0 12 -4 31 -4 44 1
13 5 22 5 22 -1 0 -6 9 -6 23 -1 13 5 30 6 37 1 7 -5 23 -5 35 0 12 5 28 4 35
0 8 -5 18 -6 24 -3 12 8 112 6 126 -2 5 -3 10 -3 10 2 0 11 80 7 91 -4 5 -5
-3 -54 -17 -113 -14 -58 -27 -112 -29 -120 -48 -203 -200 -663 -271 -818 -13
-29 -24 -54 -24 -57 0 -10 -140 -306 -150 -315 -3 -3 -23 -40 -45 -82 -22 -43
-43 -78 -47 -78 -5 0 -8 -5 -8 -11 0 -13 -158 -253 -186 -284 -11 -11 -32 -38
-49 -60 -29 -39 -212 -226 -250 -255 -127 -97 -301 -190 -326 -174 -5 3 -9 1
-9 -3 0 -5 -12 -10 -27 -12 -46 -6 -206 -4 -236 3 -53 12 -162 59 -215 93 -29
18 -56 33 -61 33 -5 0 -11 3 -13 8 -1 4 -25 25 -53 46 -212 166 -450 484 -626
836 -24 47 -42 88 -41 93 1 4 -2 7 -7 7 -5 0 -11 10 -15 23 -3 12 -5 22 -5 22
0 0 -18 39 -40 87 -55 118 -173 428 -185 483 -3 13 -26 85 -33 105 -10 26 -23
73 -30 113 -3 15 -10 27 -16 27 -6 0 -8 2 -5 6 3 3 -3 37 -14 77 -11 40 -24
90 -29 112 -5 22 -13 58 -19 80 -11 41 -15 59 -25 107 -6 25 -4 27 24 26 17
-1 33 1 35 3 7 7 66 4 66 -3z m3725 2 c4 6 13 7 24 1 9 -5 23 -6 31 -1 7 4 23
5 34 0 12 -4 31 -4 44 1 13 5 22 5 22 -1 0 -6 9 -6 23 -1 13 5 29 6 36 2 6 -4
32 -5 57 -1 24 4 47 3 50 -2 3 -4 10 -6 15 -2 14 8 113 9 127 0 6 -3 13 -2 17
4 4 6 12 7 24 1 9 -5 23 -6 31 -1 7 4 23 5 35 0 12 -5 28 -4 35 0 8 5 19 5 25
0 6 -5 17 -5 25 0 7 4 24 4 36 0 14 -6 26 -5 29 0 4 6 13 7 24 1 9 -5 23 -6
31 -1 7 4 24 4 36 0 14 -6 26 -5 29 0 4 7 13 6 26 0 10 -6 19 -7 19 -3 0 9 84
8 106 -1 7 -3 15 -2 18 2 5 8 80 6 103 -2 7 -3 13 -2 13 2 0 8 85 6 106 -2 7
-3 15 -2 18 2 5 8 80 6 103 -2 7 -3 13 -2 13 2 0 4 17 6 37 5 46 -2 81 -3 108
-3 47 0 55 -2 55 -11 0 -5 -5 -9 -12 -9 -6 0 -9 -3 -5 -6 9 -10 -195 -375
-215 -382 -4 -2 -8 -8 -8 -13 0 -20 -285 -410 -321 -439 -3 -3 -33 -36 -66
-75 -102 -119 -306 -320 -434 -427 -24 -21 -55 -47 -69 -59 -14 -12 -41 -33
-60 -48 -19 -14 -37 -28 -40 -32 -16 -18 -363 -259 -374 -259 -2 0 -43 -24
-92 -53 -49 -28 -103 -60 -119 -69 -72 -40 -381 -188 -393 -188 -7 0 -103 -38
-170 -67 -18 -8 -40 -16 -50 -18 -9 -2 -29 -8 -44 -14 -31 -12 -37 -1 -13 23
8 8 15 19 15 25 0 6 5 11 10 11 6 0 10 7 10 15 0 8 5 15 10 15 6 0 10 5 10 10
0 12 40 71 55 82 6 4 6 8 2 8 -5 0 0 12 11 27 32 45 142 243 135 243 -3 0 0 8
9 18 13 16 40 71 40 82 0 3 7 13 15 23 9 9 12 17 8 17 -4 0 0 9 10 20 10 11
16 20 12 20 -3 0 10 32 29 70 19 39 34 72 34 74 0 2 8 21 17 42 9 22 17 41 18
44 0 3 15 40 34 84 31 75 98 254 106 286 2 8 11 35 20 60 9 25 18 53 20 62 2
9 8 25 14 36 6 11 8 22 4 25 -3 4 -1 13 5 20 7 8 9 17 5 20 -3 4 -2 7 3 7 5 0
10 8 11 18 0 9 13 58 27 107 15 50 29 98 31 108 2 10 7 27 10 37 3 10 8 27 10
37 2 10 17 74 33 143 17 69 36 153 43 188 8 46 16 62 25 58 8 -3 14 -1 14 4 0
6 9 6 25 0 15 -6 26 -6 30 0z"/>
</g>
</svg>
